<?xml version="1.0" encoding="UTF-8" standalone="no"?>
<svg viewBox="0 0 238 89" version="1.1" xmlns="http://www.w3.org/2000/svg" xmlns:xlink="http://www.w3.org/1999/xlink">
    <!-- Generator: Sketch 3.6.1 (26313) - http://www.bohemiancoding.com/sketch -->
    <title>LOGO_EHCO_vector</title>
    <desc>Created with Sketch.</desc>
    <defs></defs>
    <g id="Page-1" stroke="none" stroke-width="1" fill="none" fill-rule="evenodd">
        <g id="LOGO_EHCO_vector" transform="translate(0.000000, -1.000000)" fill="#DE5F52">
            <path d="M105.551,12.785 C105.551,12.331 105.183,11.963 104.729,11.963 C104.275,11.963 103.907,12.331 103.907,12.785 L103.907,44.822 L72.69,44.823 L72.69,12.785 C72.69,12.331 72.323,11.964 71.869,11.964 C71.415,11.964 71.047,12.331 71.047,12.785 L71.047,78.506 C71.047,78.959 71.415,79.327 71.869,79.327 C72.323,79.327 72.691,78.959 72.691,78.506 L72.689,46.466 L103.907,46.466 L103.907,78.505 C103.907,78.959 104.275,79.327 104.729,79.327 C105.183,79.327 105.551,78.959 105.551,78.505 L105.551,12.785 L105.551,12.785 Z M108.837,12.785 L108.837,78.505 C108.838,79.638 108.376,80.669 107.634,81.41 C106.893,82.152 105.861,82.614 104.729,82.613 C103.598,82.614 102.566,82.152 101.825,81.41 C101.083,80.67 100.622,79.638 100.622,78.506 L100.621,78.506 L100.622,49.752 L75.976,49.752 L75.976,78.506 L75.977,78.506 C75.977,79.638 75.515,80.67 74.774,81.41 C74.033,82.152 73,82.614 71.869,82.614 C70.737,82.614 69.705,82.152 68.965,81.41 C68.223,80.67 67.761,79.638 67.762,78.506 L67.761,78.506 L67.761,12.785 C67.761,11.653 68.223,10.621 68.965,9.88 C69.705,9.138 70.737,8.677 71.869,8.678 C73,8.677 74.033,9.138 74.774,9.88 C75.515,10.621 75.977,11.654 75.977,12.785 L75.976,12.785 L75.976,41.537 L100.622,41.537 L100.622,12.785 C100.622,11.653 101.083,10.621 101.825,9.88 C102.566,9.138 103.598,8.677 104.729,8.677 C105.861,8.677 106.893,9.138 107.634,9.88 C108.376,10.621 108.838,11.653 108.837,12.785 L108.837,12.785 Z M107.194,78.505 L107.194,12.785 C107.194,12.102 106.92,11.49 106.473,11.042 C106.023,10.595 105.413,10.321 104.729,10.32 C104.046,10.321 103.435,10.595 102.987,11.042 C102.54,11.49 102.266,12.102 102.265,12.785 L102.265,43.18 L74.333,43.18 L74.333,12.785 C74.333,12.102 74.059,11.491 73.611,11.042 C73.163,10.595 72.552,10.321 71.869,10.32 C71.185,10.321 70.575,10.595 70.126,11.042 C69.679,11.491 69.405,12.102 69.404,12.785 L69.404,78.506 C69.405,79.189 69.679,79.8 70.126,80.249 C70.575,80.696 71.186,80.97 71.869,80.971 C72.552,80.97 73.163,80.696 73.612,80.249 C74.059,79.8 74.333,79.189 74.333,78.506 L74.332,48.109 L102.265,48.109 L102.264,78.505 L102.265,78.505 C102.266,79.189 102.54,79.799 102.987,80.249 C103.435,80.695 104.046,80.97 104.729,80.971 C105.413,80.97 106.023,80.695 106.473,80.249 C106.92,79.8 107.194,79.189 107.194,78.505 L107.194,78.505 Z M115.409,12.785 L115.409,78.505 C115.409,81.452 114.212,84.127 112.281,86.057 C110.351,87.988 107.676,89.186 104.729,89.185 C101.783,89.186 99.108,87.988 97.178,86.057 C95.246,84.127 94.05,81.452 94.05,78.505 L94.049,78.505 L94.05,56.324 L82.548,56.324 L82.548,78.506 C82.549,81.452 81.352,84.127 79.421,86.057 C77.491,87.989 74.815,89.186 71.869,89.186 C68.922,89.186 66.248,87.989 64.318,86.057 C62.386,84.127 61.189,81.452 61.189,78.506 L61.189,12.785 C61.189,9.839 62.386,7.163 64.318,5.234 C66.248,3.302 68.922,2.105 71.869,2.106 C74.815,2.105 77.491,3.302 79.421,5.234 C81.352,7.163 82.549,9.839 82.548,12.785 L82.548,34.965 L94.049,34.965 L94.05,12.785 C94.05,9.839 95.246,7.163 97.178,5.234 C99.108,3.302 101.783,2.105 104.729,2.105 C107.676,2.105 110.351,3.302 112.281,5.234 C114.212,7.163 115.409,9.839 115.409,12.785 L115.409,12.785 Z M113.766,12.785 C113.766,10.287 112.756,8.033 111.119,6.395 C109.482,4.759 107.227,3.749 104.729,3.748 C102.231,3.749 99.978,4.759 98.339,6.395 C96.704,8.033 95.694,10.287 95.693,12.785 L95.692,12.785 L95.692,36.608 L80.905,36.608 L80.905,12.785 C80.905,10.287 79.895,8.033 78.259,6.395 C76.62,4.759 74.367,3.749 71.869,3.748 C69.371,3.749 67.117,4.759 65.48,6.395 C63.843,8.033 62.833,10.287 62.833,12.785 L62.832,12.785 L62.832,78.506 L62.833,78.506 C62.833,81.004 63.843,83.258 65.48,84.895 C67.117,86.533 69.371,87.542 71.869,87.542 C74.367,87.542 76.62,86.533 78.259,84.895 C79.895,83.258 80.905,81.004 80.905,78.506 L80.905,54.681 L95.693,54.681 L95.692,78.505 L95.693,78.505 C95.694,81.003 96.704,83.258 98.339,84.895 C99.978,86.532 102.231,87.542 104.729,87.542 C107.227,87.542 109.482,86.532 111.119,84.895 C112.756,83.258 113.766,81.003 113.766,78.505 L113.766,12.785 L113.766,12.785 Z M112.122,12.785 L112.122,78.505 L112.123,78.505 C112.124,80.545 111.295,82.398 109.958,83.734 C108.623,85.071 106.769,85.9 104.729,85.899 C102.691,85.9 100.837,85.071 99.501,83.734 C98.165,82.398 97.335,80.545 97.336,78.505 L97.335,78.505 L97.336,53.037 L79.261,53.037 L79.262,78.505 L79.263,78.506 C79.263,80.545 78.434,82.399 77.097,83.734 C75.762,85.071 73.908,85.9 71.869,85.899 C69.83,85.9 67.976,85.071 66.641,83.734 C65.304,82.399 64.475,80.545 64.476,78.506 L64.475,78.506 L64.475,12.785 C64.475,10.746 65.304,8.893 66.641,7.557 C67.976,6.22 69.83,5.391 71.869,5.391 C73.908,5.391 75.762,6.22 77.097,7.557 C78.434,8.893 79.263,10.746 79.262,12.785 L79.262,38.251 L97.335,38.251 L97.335,12.785 L97.336,12.785 C97.335,10.746 98.165,8.892 99.501,7.557 C100.837,6.22 102.691,5.391 104.729,5.391 C106.769,5.391 108.623,6.22 109.958,7.557 C111.294,8.892 112.123,10.746 112.123,12.785 L112.122,12.785 L112.122,12.785 Z M110.48,78.505 L110.479,78.505 L110.479,12.785 L110.48,12.785 C110.479,11.194 109.838,9.762 108.796,8.719 C107.752,7.676 106.32,7.034 104.729,7.034 C103.139,7.034 101.706,7.676 100.663,8.719 C99.621,9.762 98.979,11.194 98.979,12.785 L98.979,39.894 L77.619,39.894 L77.619,12.785 L77.62,12.785 C77.619,11.194 76.977,9.762 75.936,8.719 C74.892,7.677 73.46,7.035 71.869,7.034 C70.279,7.035 68.846,7.677 67.802,8.719 C66.761,9.762 66.119,11.194 66.118,12.785 L66.118,78.506 C66.119,80.096 66.761,81.529 67.803,82.572 C68.846,83.614 70.279,84.256 71.869,84.257 C73.46,84.256 74.892,83.614 75.936,82.572 C76.977,81.529 77.62,80.096 77.62,78.506 L77.62,78.505 L77.619,78.505 L77.618,51.394 L98.979,51.394 L98.979,78.505 C98.979,80.096 99.621,81.528 100.663,82.572 C101.707,83.613 103.139,84.256 104.729,84.256 C106.32,84.256 107.752,83.613 108.796,82.572 C109.838,81.528 110.48,80.096 110.48,78.505 L110.48,78.505 Z" id="Fill-1"></path>
            <path d="M43.622,77.684 L43.62,77.684 L11.583,77.685 L11.582,46.466 L33.764,46.466 C34.218,46.466 34.585,46.098 34.585,45.644 C34.585,45.19 34.218,44.823 33.764,44.823 L11.583,44.823 L11.583,13.607 L43.622,13.606 C44.075,13.606 44.442,13.238 44.442,12.785 C44.442,12.331 44.075,11.963 43.622,11.963 L10.761,11.964 C10.308,11.964 9.94,12.332 9.94,12.785 L9.94,78.506 C9.94,78.722 10.027,78.935 10.18,79.087 C10.333,79.24 10.545,79.328 10.761,79.328 L43.622,79.327 C44.075,79.327 44.442,78.959 44.442,78.505 C44.442,78.052 44.075,77.684 43.622,77.684 L43.622,77.684 Z M51.172,70.954 C53.103,72.884 54.301,75.559 54.301,78.505 C54.301,81.452 53.103,84.127 51.172,86.057 C49.242,87.988 46.567,89.186 43.622,89.185 L10.761,89.186 C8.031,89.187 5.293,88.141 3.21,86.058 C1.125,83.975 0.081,81.236 0.082,78.506 L0.082,12.785 C0.081,10.055 1.125,7.317 3.21,5.234 C5.293,3.15 8.031,2.104 10.761,2.106 L43.622,2.105 L43.622,2.106 C46.567,2.105 49.242,3.302 51.172,5.234 C53.103,7.163 54.301,9.839 54.301,12.785 C54.301,15.732 53.103,18.406 51.172,20.337 C49.242,22.268 46.567,23.465 43.622,23.465 L43.622,23.464 L21.441,23.465 L21.441,34.965 L33.764,34.965 C36.711,34.964 39.385,36.161 41.316,38.093 C43.246,40.022 44.442,42.698 44.442,45.644 C44.442,48.591 43.246,51.266 41.316,53.196 C39.385,55.127 36.711,56.324 33.764,56.324 L21.441,56.324 L21.441,67.827 L43.62,67.826 L43.622,67.826 C46.567,67.826 49.242,69.023 51.172,70.954 L51.172,70.954 Z M52.658,78.505 C52.658,76.007 51.648,73.754 50.011,72.115 C48.373,70.479 46.118,69.47 43.622,69.469 L19.798,69.47 L19.797,54.681 L33.764,54.681 C36.262,54.68 38.516,53.671 40.154,52.034 C41.79,50.396 42.799,48.142 42.8,45.644 C42.799,43.146 41.79,40.892 40.154,39.254 C38.516,37.618 36.262,36.609 33.764,36.608 L19.798,36.609 L19.798,21.822 L43.622,21.821 C46.118,21.821 48.373,20.811 50.011,19.174 C51.648,17.537 52.658,15.283 52.658,12.785 C52.658,10.287 51.648,8.033 50.011,6.395 C48.373,4.759 46.118,3.749 43.622,3.749 L43.622,3.748 L10.761,3.749 C8.446,3.75 6.138,4.629 4.371,6.395 C2.605,8.162 1.726,10.47 1.724,12.785 L1.724,78.506 C1.726,80.822 2.605,83.129 4.371,84.896 C6.138,86.662 8.446,87.542 10.761,87.543 L43.62,87.542 L43.622,87.542 C46.118,87.541 48.373,86.532 50.011,84.895 C51.648,83.258 52.658,81.003 52.658,78.505 L52.658,78.505 Z M48.849,73.277 C50.187,74.613 51.015,76.466 51.015,78.505 C51.015,80.545 50.187,82.398 48.849,83.734 C47.514,85.07 45.66,85.899 43.622,85.899 L10.761,85.9 C8.872,85.901 6.974,85.177 5.533,83.734 C4.091,82.293 3.367,80.396 3.367,78.506 L3.367,12.785 C3.367,10.896 4.091,8.999 5.533,7.557 C6.974,6.115 8.872,5.391 10.761,5.391 L43.622,5.391 C45.66,5.391 47.514,6.22 48.849,7.557 C50.187,8.893 51.015,10.746 51.015,12.785 C51.015,14.824 50.187,16.678 48.849,18.013 C47.514,19.35 45.66,20.179 43.622,20.178 L18.155,20.179 L18.155,38.252 L33.764,38.251 L33.764,38.25 C35.803,38.25 37.656,39.08 38.993,40.416 C40.329,41.752 41.158,43.605 41.158,45.644 C41.158,47.684 40.329,49.537 38.993,50.873 C37.656,52.209 35.803,53.038 33.764,53.037 L18.155,53.038 L18.155,71.113 L43.622,71.112 L43.622,71.111 C45.66,71.111 47.514,71.941 48.849,73.277 L48.849,73.277 Z M49.373,78.505 C49.371,76.915 48.729,75.482 47.687,74.439 C46.645,73.397 45.212,72.755 43.622,72.755 L16.512,72.756 L16.511,51.395 L33.764,51.394 L33.764,51.395 C35.354,51.394 36.787,50.752 37.831,49.71 C38.872,48.667 39.514,47.235 39.515,45.644 C39.514,44.054 38.872,42.621 37.831,41.578 C36.787,40.536 35.354,39.894 33.764,39.893 L33.764,39.894 L16.512,39.895 L16.512,18.536 L43.622,18.535 C45.212,18.535 46.645,17.893 47.687,16.851 C48.729,15.808 49.371,14.375 49.373,12.785 C49.371,11.194 48.729,9.762 47.687,8.719 C46.645,7.676 45.212,7.034 43.622,7.034 L10.761,7.034 C9.287,7.036 7.82,7.595 6.695,8.719 C5.571,9.844 5.011,11.311 5.011,12.785 L5.011,78.506 C5.011,79.981 5.571,81.448 6.695,82.573 C7.82,83.697 9.287,84.256 10.761,84.257 L43.622,84.256 C45.212,84.256 46.645,83.613 47.687,82.571 C48.729,81.528 49.371,80.096 49.373,78.505 L49.373,78.505 Z M46.525,75.601 C47.268,76.342 47.729,77.374 47.729,78.505 C47.729,79.637 47.268,80.669 46.525,81.41 C45.785,82.152 44.753,82.614 43.622,82.613 L10.761,82.614 C9.713,82.614 8.657,82.211 7.857,81.41 C7.056,80.61 6.653,79.554 6.653,78.506 L6.653,12.785 C6.653,11.737 7.056,10.681 7.857,9.881 C8.657,9.081 9.713,8.677 10.761,8.678 L43.622,8.677 L43.622,8.678 C44.753,8.677 45.785,9.138 46.525,9.88 C47.268,10.621 47.729,11.653 47.729,12.785 C47.729,13.917 47.268,14.949 46.525,15.689 C45.785,16.431 44.753,16.893 43.622,16.893 L43.622,16.892 L14.868,16.893 L14.868,41.537 L33.764,41.537 C34.895,41.536 35.928,41.998 36.668,42.74 C37.411,43.481 37.872,44.513 37.871,45.644 C37.872,46.776 37.411,47.808 36.668,48.548 C35.928,49.291 34.895,49.753 33.764,49.752 L33.764,49.751 L14.868,49.752 L14.868,74.399 L43.622,74.398 C44.753,74.398 45.785,74.859 46.525,75.601 L46.525,75.601 Z M46.086,78.505 C46.085,77.822 45.811,77.211 45.364,76.763 C44.915,76.316 44.304,76.042 43.622,76.041 L13.226,76.042 L13.224,48.109 L33.764,48.109 C34.448,48.109 35.058,47.834 35.506,47.387 C35.953,46.938 36.229,46.327 36.229,45.644 C36.229,44.961 35.953,44.35 35.506,43.902 C35.058,43.455 34.448,43.181 33.764,43.18 L13.226,43.181 L13.226,15.25 L43.622,15.249 L43.622,15.25 C44.304,15.249 44.915,14.975 45.364,14.528 C45.811,14.079 46.085,13.468 46.086,12.785 C46.085,12.102 45.811,11.491 45.364,11.042 C44.915,10.595 44.304,10.321 43.622,10.321 L43.622,10.32 L10.761,10.321 C10.128,10.322 9.502,10.56 9.018,11.043 C8.536,11.526 8.297,12.152 8.297,12.785 L8.297,78.506 C8.297,79.139 8.536,79.765 9.018,80.249 C9.502,80.731 10.128,80.97 10.761,80.971 L43.622,80.97 C44.304,80.97 44.915,80.695 45.364,80.248 C45.811,79.799 46.085,79.188 46.086,78.505 L46.086,78.505 Z" id="Fill-2"></path>
            <path d="M218.202,28.393 L218.202,62.897 C218.203,64.937 217.374,66.79 216.037,68.125 C214.701,69.462 212.848,70.291 210.808,70.291 C208.769,70.291 206.916,69.462 205.58,68.125 C204.244,66.79 203.414,64.937 203.415,62.897 L203.414,28.393 C203.414,26.355 204.243,24.501 205.58,23.166 C206.915,21.829 208.769,21 210.808,21 C212.847,21 214.701,21.829 216.036,23.166 C217.373,24.501 218.202,26.355 218.202,28.393 L218.202,28.393 Z M216.56,62.897 L216.559,28.393 C216.558,26.803 215.916,25.371 214.874,24.328 C213.831,23.285 212.399,22.643 210.808,22.643 C209.217,22.643 207.785,23.285 206.742,24.328 C205.7,25.371 205.058,26.803 205.058,28.393 L205.058,62.897 C205.058,64.488 205.7,65.92 206.742,66.963 C207.785,68.005 209.218,68.647 210.808,68.648 C212.399,68.647 213.832,68.005 214.875,66.963 C215.916,65.92 216.559,64.488 216.56,62.897 L216.56,62.897 Z M221.488,28.393 L221.489,62.897 C221.489,65.844 220.292,68.519 218.36,70.449 C216.43,72.38 213.755,73.577 210.808,73.577 C207.862,73.577 205.187,72.38 203.257,70.449 C201.325,68.519 200.129,65.844 200.129,62.897 L200.129,28.393 C200.128,25.448 201.325,22.772 203.256,20.842 C205.186,18.911 207.861,17.714 210.808,17.714 C213.754,17.714 216.429,18.911 218.36,20.842 C220.291,22.772 221.489,25.447 221.488,28.393 L221.488,28.393 Z M219.845,62.897 L219.845,28.393 C219.845,25.896 218.835,23.642 217.198,22.004 C215.56,20.367 213.306,19.358 210.808,19.357 C208.31,19.358 206.056,20.367 204.418,22.004 C202.781,23.642 201.772,25.896 201.771,28.393 L201.772,62.897 C201.773,65.395 202.782,67.649 204.418,69.287 C206.056,70.924 208.31,71.933 210.808,71.933 C213.306,71.933 215.561,70.924 217.198,69.287 C218.835,67.649 219.845,65.395 219.845,62.897 L219.845,62.897 Z M224.774,28.393 L224.774,62.897 C224.775,66.751 223.21,70.247 220.684,72.772 C218.159,75.298 214.662,76.864 210.808,76.863 C206.954,76.864 203.457,75.298 200.933,72.772 C198.407,70.247 196.843,66.751 196.843,62.897 L196.843,28.393 C196.842,24.54 198.406,21.043 200.933,18.518 C203.457,15.992 206.954,14.428 210.808,14.428 C214.662,14.428 218.159,15.992 220.683,18.518 C223.21,21.043 224.774,24.54 224.774,28.393 L224.774,28.393 Z M223.132,62.897 L223.131,28.393 C223.13,24.988 221.753,21.913 219.522,19.68 C217.289,17.449 214.213,16.071 210.808,16.071 C207.402,16.071 204.327,17.449 202.094,19.68 C199.864,21.913 198.486,24.988 198.485,28.393 L198.486,62.897 C198.486,66.302 199.864,69.378 202.095,71.61 C204.327,73.842 207.402,75.22 210.808,75.22 C214.213,75.22 217.29,73.842 219.522,71.61 C221.753,69.378 223.131,66.302 223.132,62.897 L223.132,62.897 Z M228.06,28.393 L228.06,62.897 C228.061,67.658 226.128,71.976 223.007,75.096 C219.888,78.217 215.57,80.149 210.808,80.149 C206.047,80.149 201.728,78.217 198.609,75.096 C195.489,71.976 193.556,67.658 193.557,62.897 L193.556,28.393 C193.556,23.633 195.488,19.314 198.609,16.195 C201.728,13.074 206.046,11.141 210.808,11.142 C215.569,11.141 219.888,13.074 223.007,16.195 C226.128,19.314 228.06,23.633 228.06,28.393 L228.06,28.393 Z M226.417,62.897 L226.417,28.393 C226.417,24.081 224.671,20.184 221.845,17.357 C219.017,14.531 215.121,12.785 210.808,12.785 C206.495,12.785 202.598,14.531 199.771,17.357 C196.945,20.184 195.2,24.081 195.199,28.393 L195.2,62.897 C195.2,67.21 196.945,71.107 199.771,73.934 C202.599,76.76 206.495,78.505 210.808,78.506 C215.121,78.505 219.018,76.76 221.846,73.934 C224.671,71.107 226.417,67.21 226.417,62.897 L226.417,62.897 Z M231.346,28.393 L231.346,62.897 C231.347,68.566 229.046,73.705 225.331,77.42 C221.617,81.135 216.477,83.436 210.808,83.435 C205.139,83.436 200,81.135 196.286,77.42 C192.57,73.705 190.271,68.566 190.271,62.897 L190.271,28.393 C190.27,22.725 192.57,17.586 196.285,13.872 C199.999,10.156 205.139,7.856 210.808,7.856 C216.476,7.856 221.616,10.156 225.33,13.872 C229.046,17.585 231.346,22.725 231.346,28.393 L231.346,28.393 Z M229.704,62.897 L229.703,28.393 C229.702,23.173 227.589,18.455 224.169,15.033 C220.747,11.613 216.028,9.5 210.808,9.499 C205.587,9.5 200.869,11.613 197.448,15.033 C194.027,18.455 191.914,23.173 191.913,28.393 L191.914,62.897 C191.914,68.117 194.027,72.836 197.448,76.258 C200.87,79.679 205.587,81.792 210.808,81.792 C216.029,81.792 220.747,79.679 224.169,76.258 C227.59,72.836 229.703,68.117 229.704,62.897 L229.704,62.897 Z M234.632,28.393 L234.632,62.897 C234.633,69.473 231.965,75.435 227.655,79.743 C223.346,84.053 217.384,86.721 210.808,86.721 C204.232,86.721 198.271,84.053 193.962,79.743 C189.652,75.435 186.984,69.473 186.985,62.897 L186.984,28.393 C186.984,21.817 189.651,15.857 193.961,11.548 C198.27,7.238 204.231,4.569 210.808,4.57 C217.384,4.569 223.346,7.238 227.654,11.548 C231.964,15.857 234.632,21.817 234.632,28.393 L234.632,28.393 Z M232.99,62.897 L232.989,28.393 C232.989,22.266 230.508,16.726 226.493,12.709 C222.476,8.694 216.936,6.213 210.808,6.213 C204.68,6.213 199.14,8.694 195.123,12.709 C191.109,16.726 188.627,22.266 188.627,28.393 L188.627,62.897 C188.628,69.025 191.109,74.564 195.123,78.581 C199.14,82.597 204.68,85.077 210.808,85.078 C216.936,85.077 222.476,82.597 226.493,78.581 C230.508,74.564 232.989,69.025 232.99,62.897 L232.99,62.897 Z M237.919,62.897 C237.919,70.38 234.883,77.163 229.978,82.067 C225.074,86.972 218.292,90.008 210.808,90.008 C203.324,90.008 196.542,86.972 191.638,82.067 C186.734,77.163 183.699,70.38 183.699,62.897 L183.699,28.393 C183.698,20.91 186.733,14.128 191.638,9.224 C196.541,4.32 203.324,1.283 210.808,1.284 C218.292,1.283 225.074,4.32 229.978,9.224 C234.882,14.128 237.919,20.91 237.918,28.393 L237.919,62.897 L237.919,62.897 Z M236.276,62.897 L236.275,28.393 C236.275,21.359 233.426,14.997 228.816,10.386 C224.205,5.776 217.843,2.927 210.808,2.927 C203.772,2.927 197.411,5.776 192.799,10.386 C188.19,14.997 185.342,21.359 185.341,28.393 L185.342,62.897 C185.342,69.932 188.191,76.293 192.8,80.905 C197.411,85.515 203.772,88.364 210.808,88.364 C217.844,88.364 224.205,85.515 228.817,80.905 C233.426,76.293 236.275,69.932 236.276,62.897 L236.276,62.897 Z" id="Fill-3"></path>
            <path d="M169.963,59.993 C170.706,60.733 171.167,61.766 171.167,62.897 C171.165,68.567 168.866,73.705 165.15,77.42 C161.437,81.134 156.298,83.434 150.628,83.436 C144.958,83.435 139.818,81.134 136.106,77.419 C132.39,73.705 130.091,68.567 130.091,62.897 L130.09,28.393 C130.091,22.725 132.39,17.586 136.105,13.872 C139.818,10.157 144.958,7.856 150.628,7.856 C156.297,7.856 161.437,10.157 165.15,13.872 C168.865,17.585 171.165,22.725 171.167,28.393 C171.167,29.526 170.705,30.558 169.963,31.298 C169.222,32.04 168.191,32.502 167.058,32.501 C165.928,32.502 164.895,32.04 164.155,31.298 C163.412,30.558 162.952,29.526 162.952,28.394 C162.949,24.977 161.579,21.925 159.342,19.681 C157.097,17.443 154.045,16.073 150.628,16.071 C147.21,16.073 144.159,17.443 141.915,19.679 C139.677,21.925 138.308,24.976 138.305,28.393 L138.306,62.896 C138.309,66.314 139.677,69.366 141.914,71.61 C144.159,73.848 147.21,75.218 150.628,75.22 C154.045,75.218 157.097,73.848 159.342,71.611 C161.579,69.366 162.949,66.314 162.952,62.896 C162.952,61.765 163.412,60.733 164.155,59.993 C164.896,59.25 165.928,58.789 167.06,58.789 C168.191,58.789 169.223,59.25 169.963,59.993 L169.963,59.993 Z M169.524,62.897 C169.523,62.213 169.249,61.603 168.802,61.155 C168.353,60.707 167.742,60.433 167.06,60.433 C166.376,60.433 165.765,60.707 165.317,61.155 C164.869,61.603 164.595,62.213 164.594,62.897 C164.594,66.76 163.035,70.239 160.503,72.773 C157.97,75.302 154.492,76.862 150.628,76.863 C146.764,76.862 143.286,75.302 140.752,72.772 C138.223,70.239 136.664,66.76 136.662,62.897 L136.662,28.393 C136.664,24.531 138.223,21.052 140.753,18.518 C143.286,15.988 146.764,14.429 150.628,14.428 C154.491,14.429 157.97,15.988 160.505,18.519 C163.033,21.052 164.593,24.531 164.594,28.393 C164.594,29.077 164.869,29.688 165.317,30.137 C165.765,30.584 166.375,30.858 167.058,30.859 C167.742,30.858 168.353,30.584 168.802,30.137 C169.249,29.688 169.523,29.077 169.523,28.394 C169.521,23.173 167.409,18.455 163.988,15.033 C160.568,11.613 155.848,9.5 150.628,9.499 C145.407,9.5 140.689,11.613 137.267,15.033 C133.848,18.455 131.735,23.173 131.734,28.393 L131.734,62.897 C131.735,68.118 133.848,72.836 137.268,76.257 C140.689,79.678 145.407,81.791 150.628,81.792 C155.85,81.79 160.568,79.678 163.988,76.257 C167.409,72.836 169.521,68.118 169.524,62.897 L169.524,62.897 Z M167.058,62.076 C166.606,62.076 166.238,62.443 166.238,62.897 C166.237,67.21 164.492,71.107 161.666,73.935 C158.839,76.76 154.942,78.505 150.628,78.506 C146.314,78.505 142.418,76.76 139.591,73.935 C136.766,71.107 135.02,67.21 135.02,62.897 L135.02,28.393 C135.02,24.081 136.765,20.184 139.59,17.357 C142.418,14.531 146.314,12.785 150.628,12.785 C154.941,12.785 158.838,14.531 161.665,17.357 C164.491,20.184 166.237,24.081 166.237,28.393 C166.237,28.847 166.605,29.215 167.058,29.215 C167.512,29.215 167.88,28.847 167.88,28.393 C167.88,23.633 165.948,19.314 162.827,16.195 C159.707,13.075 155.389,11.142 150.628,11.142 C145.866,11.142 141.548,13.075 138.428,16.195 C135.309,19.314 133.376,23.633 133.376,28.393 L133.376,62.897 C133.376,67.658 135.309,71.976 138.43,75.096 C141.548,78.217 145.867,80.15 150.628,80.149 C155.389,80.15 159.708,78.217 162.828,75.096 C165.948,71.976 167.882,67.658 167.88,62.897 C167.88,62.443 167.512,62.076 167.058,62.076 L167.058,62.076 Z M177.739,62.897 C177.739,70.38 174.703,77.163 169.798,82.067 C164.895,86.972 158.111,90.008 150.628,90.008 C143.144,90.008 136.362,86.972 131.458,82.067 C126.554,77.163 123.519,70.38 123.519,62.897 L123.519,28.393 C123.517,20.91 126.554,14.128 131.458,9.224 C136.362,4.32 143.144,1.283 150.628,1.284 C158.111,1.283 164.895,4.32 169.798,9.224 C174.703,14.128 177.739,20.91 177.738,28.393 C177.739,31.34 176.541,34.015 174.61,35.945 C172.68,37.876 170.005,39.074 167.058,39.073 C164.112,39.074 161.437,37.876 159.507,35.945 C157.576,34.015 156.379,31.34 156.379,28.393 C156.379,26.803 155.737,25.371 154.695,24.328 C153.651,23.285 152.218,22.643 150.628,22.643 C149.038,22.643 147.605,23.285 146.562,24.328 C145.519,25.371 144.878,26.803 144.878,28.393 L144.878,62.897 C144.879,64.488 145.521,65.92 146.562,66.963 C147.605,68.005 149.038,68.647 150.628,68.648 C152.22,68.647 153.651,68.005 154.695,66.963 C155.737,65.92 156.379,64.488 156.379,62.897 L156.38,62.897 C156.379,59.951 157.577,57.275 159.508,55.345 C161.438,53.414 164.113,52.217 167.06,52.218 C170.006,52.217 172.682,53.414 174.611,55.345 C176.543,57.275 177.739,59.951 177.739,62.897 L177.739,62.897 Z M176.095,62.897 C176.095,60.399 175.086,58.145 173.45,56.507 C171.811,54.871 169.558,53.861 167.06,53.861 C164.562,53.861 162.307,54.871 160.67,56.507 C159.033,58.145 158.023,60.399 158.023,62.897 C158.023,64.937 157.193,66.79 155.857,68.125 C154.522,69.462 152.668,70.291 150.628,70.291 C148.59,70.291 146.736,69.462 145.4,68.125 C144.064,66.79 143.235,64.937 143.235,62.897 L143.235,28.393 C143.234,26.355 144.064,24.501 145.4,23.166 C146.735,21.829 148.588,21 150.628,21 C152.667,21 154.522,21.829 155.857,23.166 C157.193,24.501 158.023,26.355 158.023,28.393 C158.023,30.891 159.033,33.146 160.668,34.783 C162.307,36.42 164.56,37.43 167.058,37.43 C169.556,37.43 171.81,36.42 173.448,34.783 C175.086,33.146 176.094,30.891 176.095,28.393 C176.094,21.359 173.246,14.997 168.636,10.386 C164.025,5.776 157.663,2.927 150.628,2.927 C143.592,2.927 137.231,5.776 132.62,10.386 C128.011,14.997 125.162,21.359 125.161,28.393 L125.162,62.897 C125.162,69.932 128.011,76.293 132.62,80.905 C137.232,85.515 143.592,88.364 150.628,88.364 C157.664,88.364 164.026,85.515 168.636,80.905 C173.247,76.293 176.095,69.932 176.095,62.897 L176.095,62.897 Z M174.452,62.897 L174.453,62.898 C174.452,69.464 171.778,75.423 167.465,79.734 C163.154,84.046 157.196,86.72 150.63,86.721 L150.628,86.721 C144.062,86.72 138.102,84.046 133.791,79.734 C129.48,75.423 126.805,69.464 126.805,62.898 L126.805,28.393 C126.805,21.828 129.479,15.868 133.791,11.557 C138.102,7.245 144.061,4.571 150.627,4.57 C157.193,4.571 163.154,7.245 167.465,11.557 C171.776,15.867 174.452,21.828 174.452,28.393 L174.453,28.393 C174.453,30.433 173.624,32.286 172.287,33.622 C170.952,34.959 169.098,35.788 167.058,35.787 C165.02,35.788 163.166,34.959 161.83,33.622 C160.495,32.287 159.665,30.434 159.665,28.396 C159.663,25.979 158.727,23.718 157.015,22.002 C155.305,20.297 153.043,19.36 150.627,19.357 C148.212,19.36 145.951,20.296 144.236,22.005 C142.531,23.716 141.594,25.978 141.591,28.396 L141.593,62.896 C141.595,65.313 142.531,67.574 144.24,69.289 C145.951,70.995 148.214,71.931 150.63,71.934 C153.044,71.931 155.305,70.995 157.021,69.285 C158.725,67.574 159.663,65.314 159.665,62.897 C159.665,60.858 160.494,59.004 161.831,57.669 C163.166,56.332 165.02,55.503 167.06,55.503 C169.098,55.503 170.952,56.332 172.287,57.669 C173.624,59.004 174.453,60.858 174.453,62.897 L174.452,62.897 L174.452,62.897 Z M172.81,62.897 L172.81,62.897 C172.809,61.306 172.167,59.874 171.125,58.83 C170.083,57.789 168.65,57.147 167.06,57.146 C165.468,57.147 164.037,57.789 162.993,58.83 C161.951,59.874 161.309,61.306 161.309,62.897 C161.308,65.742 160.192,68.434 158.183,70.447 C156.165,72.461 153.473,73.577 150.63,73.577 C147.784,73.577 145.091,72.461 143.078,70.451 C141.065,68.435 139.949,65.742 139.949,62.897 L139.949,28.395 C139.949,25.549 141.065,22.856 143.074,20.844 C145.09,18.83 147.784,17.714 150.627,17.714 C153.473,17.714 156.165,18.83 158.179,20.84 C160.192,22.856 161.308,25.549 161.308,28.393 L161.309,28.393 C161.309,29.984 161.951,31.417 162.992,32.46 C164.035,33.502 165.468,34.144 167.058,34.144 C168.65,34.144 170.082,33.502 171.125,32.46 C172.167,31.417 172.809,29.984 172.809,28.393 L172.81,28.393 L172.809,28.393 C172.808,22.278 170.321,16.738 166.302,12.719 C162.283,8.7 156.743,6.215 150.627,6.213 C144.512,6.215 138.972,8.7 134.953,12.719 C130.935,16.738 128.449,22.278 128.447,28.394 L128.447,62.898 C128.449,69.013 130.935,74.553 134.954,78.572 C138.972,82.591 144.512,85.077 150.628,85.078 L150.63,85.078 C156.744,85.077 162.284,82.59 166.304,78.572 C170.322,74.553 172.808,69.012 172.809,62.898 L172.81,62.898 L172.81,62.897 L172.81,62.897 Z" id="Fill-4"></path>
        </g>
    </g>
</svg>
